<svg xmlns="http://www.w3.org/2000/svg" width="256" height="256" viewBox="0 0 100 100"><rect width="100" height="100" rx="20" fill="#224ee1"></rect><path d="M10.05 76.97L10.05 76.97Q6.70 76.97 4.72 74.99Q2.74 73.01 2.74 69.67L2.74 69.67L2.74 30.77Q2.74 27.43 4.72 25.45Q6.70 23.47 10.05 23.47L10.05 23.47L39.18 23.47Q39.70 24.35 40.14 25.67Q40.58 26.99 40.58 28.66L40.58 28.66Q40.58 31.56 39.31 32.97Q38.03 34.38 35.74 34.38L35.74 34.38L16.21 34.38L16.21 44.24L36.62 44.24Q37.15 45.12 37.59 46.44Q38.03 47.76 38.03 49.43L38.03 49.43Q38.03 52.33 36.80 53.70Q35.57 55.06 33.28 55.06L33.28 55.06L16.21 55.06L16.21 66.06L39.53 66.06Q40.06 66.94 40.50 68.35Q40.94 69.76 40.94 71.43L40.94 71.43Q40.94 74.33 39.66 75.65Q38.38 76.97 36.18 76.97L36.18 76.97L10.05 76.97ZM64.52 76.71L64.52 76.71Q63.55 76.97 61.79 77.19Q60.03 77.41 58.10 77.41L58.10 77.41Q53.96 77.41 52.33 76.00Q50.70 74.60 50.70 70.90L50.70 70.90L50.70 23.29Q51.67 23.12 53.48 22.85Q55.28 22.59 57.04 22.59L57.04 22.59Q61 22.59 62.76 23.91Q64.52 25.23 64.52 29.10L64.52 29.10L64.52 44.59L83.44 44.59L83.44 23.29Q84.41 23.12 86.21 22.85Q88.02 22.59 89.86 22.59L89.86 22.59Q93.74 22.59 95.50 24.00Q97.26 25.40 97.26 29.28L97.26 29.28L97.26 76.71Q96.29 76.97 94.53 77.19Q92.77 77.41 90.83 77.41L90.83 77.41Q86.70 77.41 85.07 76.00Q83.44 74.60 83.44 70.90L83.44 70.90L83.44 55.50L64.52 55.50L64.52 76.71Z" fill="#fff"></path></svg>